<svg xmlns="http://www.w3.org/2000/svg" xmlns:xlink="http://www.w3.org/1999/xlink" width="222" height="222" viewBox="0 0 222 222">
  <defs>
    <filter id="Rectangle_147801" x="0" y="0" width="222" height="222" filterUnits="userSpaceOnUse">
      <feOffset dy="7" input="SourceAlpha"/>
      <feGaussianBlur stdDeviation="3" result="blur"/>
      <feFlood flood-opacity="0.133"/>
      <feComposite operator="in" in2="blur"/>
      <feComposite in="SourceGraphic"/>
    </filter>
  </defs>
  <g id="Group_68637" data-name="Group 68637" transform="translate(-492 -865)">
    <g id="Group_68573" data-name="Group 68573" transform="translate(77 429)">
      <g id="Group_68572" data-name="Group 68572">
        <g transform="matrix(1, 0, 0, 1, 415, 436)" filter="url(#Rectangle_147801)">
          <rect id="Rectangle_147801-2" data-name="Rectangle 147801" width="204" height="204" rx="4" transform="translate(9 2)" fill="#2f2f2f" opacity="0.1"/>
        </g>
        <g id="Group_68571" data-name="Group 68571" transform="translate(3.111 -0.43)">
          <g id="Group_68566" data-name="Group 68566" transform="translate(438.889 456.43)">
            <path id="Rectangle_147798" data-name="Rectangle 147798" d="M2,0H41a0,0,0,0,1,0,0V168a0,0,0,0,1,0,0H2a2,2,0,0,1-2-2V2A2,2,0,0,1,2,0Z" fill="#2f2f2f" opacity="0.3"/>
            <path id="Rectangle_147799" data-name="Rectangle 147799" d="M0,0H117a2,2,0,0,1,2,2V166a2,2,0,0,1-2,2H0a0,0,0,0,1,0,0V0A0,0,0,0,1,0,0Z" transform="translate(49)" fill="#2f2f2f" opacity="0.3"/>
          </g>
        </g>
      </g>
      <path id="Rectangle_147800" data-name="Rectangle 147800" d="M0,0H83a0,0,0,0,1,0,0V65a2,2,0,0,1-2,2H2a2,2,0,0,1-2-2V0A0,0,0,0,1,0,0Z" transform="translate(506 456)" fill="#2f2f2f"/>
    </g>
    <g id="Group_68574" data-name="Group 68574" transform="translate(17413 2335)">
      <path id="Union_1" data-name="Union 1" d="M3.743,12.772,0,16.39V0L12,12H6.594l3.314,7.9-2.7,1.133Z" transform="translate(-16785 -1418.6)" fill="#2f2f2f"/>
    </g>
    <rect id="Rectangle_147803" data-name="Rectangle 147803" width="46" height="46" rx="23" transform="translate(599 963)" fill="#fff"/>
  </g>
</svg>
