<svg xmlns="http://www.w3.org/2000/svg" xmlns:xlink="http://www.w3.org/1999/xlink" width="234" height="189" viewBox="0 0 234 189">
  <defs>
    <clipPath id="clip-path">
      <rect id="Rectangle_147834" data-name="Rectangle 147834" width="234" height="189" transform="translate(0.41 -0.064)" fill="#ffeafd"/>
    </clipPath>
    <linearGradient id="linear-gradient" x1="0.5" x2="0.5" y2="1" gradientUnits="objectBoundingBox">
      <stop offset="0" stop-color="#1243c9"/>
      <stop offset="1" stop-color="#8943f9"/>
    </linearGradient>
    <clipPath id="clip-path-2">
      <rect width="10" height="10" fill="none"/>
    </clipPath>
    <clipPath id="clip-path-4">
      <rect width="14" height="14" fill="none"/>
    </clipPath>
    <clipPath id="clip-path-5">
      <path id="Path_61121" data-name="Path 61121" d="M3.56-9.321,5.678-5a.174.174,0,0,0,.247.077l.781-.433a.22.22,0,0,0,.085-.278L4.866-9.948h2.9c.108,0,.131-.062.054-.139L1-17v9.952c0,.108.062.131.139.062Z" transform="translate(-1 17)" fill="none" clip-rule="evenodd"/>
    </clipPath>
    <clipPath id="clip-path-6">
      <path id="Path_61120" data-name="Path 61120" d="M0,6.745H24.745V-18H0Z" transform="translate(0 18)" fill="none"/>
    </clipPath>
    <clipPath id="clip-path-7">
      <path id="Path_61126" data-name="Path 61126" d="M4.767,0C7.4,0,9.534,4.178,9.534,9.332S0,14.486,0,9.332,2.134,0,4.767,0Z" fill="#dae2f4"/>
    </clipPath>
  </defs>
  <g id="Mask_Group_11" data-name="Mask Group 11" transform="translate(-0.41 0.064)" clip-path="url(#clip-path)">
    <g id="Group_68656" data-name="Group 68656" transform="translate(0 0)">
      <rect id="Background" width="149" height="705" transform="translate(0.41 -0.064)" fill="#f5f5f5"/>
      <rect id="Divider" width="149" height="1" transform="translate(0.41 703.936)" fill="#ddd"/>
      <rect id="Heading_Vertical_Space" data-name="Heading Vertical Space" width="149" height="37" transform="translate(0.41 -0.064)" fill="#f5f5f5"/>
      <text id="Section_Heading" data-name="Section Heading" transform="translate(9.41 21.936)" fill="#8e8e8e" font-size="6" font-family="SFProText-Regular, SF Pro Text" letter-spacing="0.12em"><tspan x="0" y="0">PLUGINS</tspan></text>
      <rect id="Rectangle_147823" data-name="Rectangle 147823" width="11" height="11" transform="translate(128.41 14.936)" fill="#c4c4c4" opacity="0"/>
      <path id="Path_61116" data-name="Path 61116" d="M7.3-20.757H4.54v-2.756A.486.486,0,0,0,4.053-24a.486.486,0,0,0-.486.486v2.756H.486A.486.486,0,0,0,0-20.271a.486.486,0,0,0,.486.486h3.08v3.08a.486.486,0,0,0,.486.486A.486.486,0,0,0,4.54-16.7v-3.08H7.3a.486.486,0,0,0,.486-.486.486.486,0,0,0-.486-.486" transform="translate(129.478 40.574)" fill="#666" fill-rule="evenodd"/>
      <g id="Group_68655" data-name="Group 68655" transform="translate(9.269 32.443)">
        <rect id="Background-2" data-name="Background" width="131" height="27" rx="2" transform="translate(0.141 98.493)" fill="#fff"/>
        <text id="Vidz" transform="translate(26.141 114.493)" fill="#8e8e8e" font-size="7" font-family="SFProText-Regular, SF Pro Text"><tspan x="0" y="0">Vidz</tspan></text>
        <g id="Plugin_Icon" data-name="Plugin Icon" transform="translate(3.708 102.89)">
          <g id="Background-3" data-name="Background" transform="translate(0.433 -0.397)" fill="none" stroke="#e3e3e3" stroke-width="1">
            <rect width="18" height="19" rx="2" stroke="none"/>
            <rect x="0.5" y="0.5" width="17" height="18" rx="1.5" fill="none"/>
          </g>
          <circle id="Ellipse_20192" data-name="Ellipse 20192" cx="4" cy="4" r="4" transform="translate(5.433 4.603)" fill="#d10061"/>
        </g>
        <rect id="Background-4" data-name="Background" width="131" height="27" rx="2" transform="translate(0.141 186.493)" fill="#fff"/>
        <text id="Cleanups" transform="translate(26.141 202.493)" fill="#8e8e8e" font-size="7" font-family="SFProText-Regular, SF Pro Text"><tspan x="0" y="0">Cleanups</tspan></text>
        <g id="Plugin_Icon-2" data-name="Plugin Icon" transform="translate(3.708 190.95)">
          <rect id="Background-5" data-name="Background" width="18" height="19" rx="2" transform="translate(0.433 -0.457)" fill="url(#linear-gradient)"/>
          <path id="Path_61117" data-name="Path 61117" d="M0,0H6.576V3.74L4.446,5.749H2.009A2.009,2.009,0,0,1,0,3.74Z" transform="translate(6.819 6.888) rotate(45)" fill="#fff" opacity="0.7"/>
          <rect id="Rectangle_147824" data-name="Rectangle 147824" width="6.576" height="5.053" transform="translate(10.632 3.075) rotate(45)" fill="#fff"/>
        </g>
        <g id="Dropdown_-_Chevron" data-name="Dropdown - Chevron" transform="translate(117.141 194.493)" clip-path="url(#clip-path-2)">
          <rect id="Rectangle_147391" data-name="Rectangle 147391" width="11" height="11" transform="translate(0 0)" fill="#fff" opacity="0"/>
          <path id="Dropdown" d="M0,3.093,3.093,0,6.186,3.093" transform="translate(6.96 2.32) rotate(90)" fill="none" stroke="#666" stroke-linecap="round" stroke-linejoin="round" stroke-miterlimit="10" stroke-width="1"/>
        </g>
        <rect id="Background-6" data-name="Background" width="131" height="26" rx="2" transform="translate(0.141 69.493)" fill="#fff"/>
        <text id="Copy_Code" data-name="Copy Code" transform="translate(26.141 84.493)" fill="#8e8e8e" font-size="7" font-family="SFProText-Regular, SF Pro Text"><tspan x="0" y="0">Copy Code</tspan></text>
        <g id="Plugin_icon-3" data-name="Plugin icon" transform="translate(3.708 73.228)">
          <rect id="Background-7" data-name="Background" width="18" height="18" rx="2" transform="translate(0.433 0.265)" fill="#0da3d0"/>
          <g id="Group_68651" data-name="Group 68651" transform="translate(2.854 3.781)">
            <path id="Rectangle_147825" data-name="Rectangle 147825" d="M0,0H1A8,8,0,0,1,9,8V8A0,0,0,0,1,9,8H0A0,0,0,0,1,0,8V0A0,0,0,0,1,0,0Z" transform="translate(-0.421 4.484)" fill="#fff"/>
            <path id="Rectangle_147826" data-name="Rectangle 147826" d="M0,0H3A11,11,0,0,1,14,11v1a0,0,0,0,1,0,0H0a0,0,0,0,1,0,0V0A0,0,0,0,1,0,0Z" transform="translate(-0.421 0.484)" fill="#fff" opacity="0.4"/>
          </g>
          <g id="Group_68706" data-name="Group 68706" transform="translate(2.854 3.781)">
            <path id="Rectangle_147825-2" data-name="Rectangle 147825" d="M0,0H1A8,8,0,0,1,9,8V8A0,0,0,0,1,9,8H0A0,0,0,0,1,0,8V0A0,0,0,0,1,0,0Z" transform="translate(-0.421 4.484)" fill="#fff"/>
            <path id="Rectangle_147826-2" data-name="Rectangle 147826" d="M0,0H3A11,11,0,0,1,14,11v1a0,0,0,0,1,0,0H0a0,0,0,0,1,0,0V0A0,0,0,0,1,0,0Z" transform="translate(-0.421 0.484)" fill="#fff" opacity="0.4"/>
          </g>
        </g>
        <rect id="Background-8" data-name="Background" width="131" height="26" rx="2" transform="translate(0.141 157.493)" fill="#fff"/>
        <text id="Fill_Content" data-name="Fill Content" transform="translate(26.141 172.493)" fill="#8e8e8e" font-size="7" font-family="SFProText-Regular, SF Pro Text"><tspan x="0" y="0">Fill Content</tspan></text>
        <g id="Plugin_Icon-4" data-name="Plugin Icon" transform="translate(3.708 161.288)">
          <rect id="Background-9" data-name="Background" width="18" height="18" rx="2" transform="translate(0.433 0.205)" fill="#409af5"/>
          <path id="Rectangle_147827" data-name="Rectangle 147827" d="M2,0H6.452a0,0,0,0,1,0,0V6.452a0,0,0,0,1,0,0H0a0,0,0,0,1,0,0V2A2,2,0,0,1,2,0Z" transform="translate(5.601 5.04)" fill="#cce6ff" opacity="0.3"/>
          <path id="Rectangle_147828" data-name="Rectangle 147828" d="M2,0H6.452a0,0,0,0,1,0,0V6.452a0,0,0,0,1,0,0H0a0,0,0,0,1,0,0V2A2,2,0,0,1,2,0Z" transform="translate(6.892 6.33)" fill="#cce6ff" opacity="0.3"/>
          <path id="Path_61118" data-name="Path 61118" d="M1.29,0H6.452V6.452H0V1.29A1.29,1.29,0,0,1,1.29,0Z" transform="translate(8.182 7.621)" fill="#cce6ff" opacity="0.3"/>
          <path id="Rectangle_147829" data-name="Rectangle 147829" d="M2,0H6.452a0,0,0,0,1,0,0V6.452a0,0,0,0,1,0,0H0a0,0,0,0,1,0,0V2A2,2,0,0,1,2,0Z" transform="translate(7.563 7.002)" fill="#cce6ff" opacity="0.3"/>
          <path id="Rectangle_147830" data-name="Rectangle 147830" d="M2,0H6.452a0,0,0,0,1,0,0V6.452a0,0,0,0,1,0,0H0a0,0,0,0,1,0,0V2A2,2,0,0,1,2,0Z" transform="translate(8.854 8.292)" fill="#cce6ff" opacity="0.3"/>
          <path id="Rectangle_147831" data-name="Rectangle 147831" d="M2,0H6.452a0,0,0,0,1,0,0V6.452a0,0,0,0,1,0,0H0a0,0,0,0,1,0,0V2A2,2,0,0,1,2,0Z" transform="translate(9.525 8.964)" fill="#cce6ff" opacity="0.3"/>
          <path id="Rectangle_147832" data-name="Rectangle 147832" d="M2,0H6.452a0,0,0,0,1,0,0V4.452a2,2,0,0,1-2,2H0a0,0,0,0,1,0,0V2A2,2,0,0,1,2,0Z" transform="translate(10.815 10.254)" fill="#cce6ff" opacity="0.3"/>
        </g>
        <rect id="Background-10" data-name="Background" width="131" height="65" rx="2" transform="translate(0.141 0.493)" fill="#fff"/>
        <text id="Your_Pugin" data-name="Your Pugin" transform="translate(26.141 14.493)" fill="#8e8e8e" font-size="7" font-family="SFProText-Regular, SF Pro Text"><tspan x="0" y="0">Your Pugin</tspan></text>
        <g id="Plugin_icon-5" data-name="Plugin icon" transform="translate(3.708 3.708)">
          <rect id="Background-11" data-name="Background" width="18" height="19" rx="2" transform="translate(0.433 -0.215)" fill="#34aecb"/>
          <path id="award001_-_E0FB" data-name="award001 - E0FB" d="M-.673-12.623c.176-.176.341-.341.506-.341.044,0,.143.022.473.088l.385.088.033.011H.78c.022,0,.055.011.1.011a.9.9,0,0,0,.837-.605l.253-.782a.267.267,0,0,1,.187-.187l.782-.253a.9.9,0,0,0,.605-.837.244.244,0,0,0-.011-.1v-.055l-.187-.837v-.055a.348.348,0,0,1,.077-.209l.22-.231c.418-.473.55-.605.55-.958s-.121-.484-.528-.925l-.242-.275a.265.265,0,0,1-.077-.2c.011-.066.066-.363.11-.539a3.449,3.449,0,0,0,.088-.506.872.872,0,0,0-.605-.826L2.168-21.4a.3.3,0,0,1-.2-.187l-.253-.793a.886.886,0,0,0-.837-.605,3.748,3.748,0,0,0-.539.1c-.176.044-.44.1-.506.11-.154,0-.319-.165-.484-.341a1.336,1.336,0,0,0-.914-.517,1.365,1.365,0,0,0-.9.506c-.165.176-.33.341-.473.352l-.385-.077a4.039,4.039,0,0,0-.683-.132.872.872,0,0,0-.826.605l-.253.782a.3.3,0,0,1-.2.2l-.782.253a.872.872,0,0,0-.605.826,4.769,4.769,0,0,0,.11.583l.1.473a.3.3,0,0,1-.088.2l-.308.341c-.33.363-.462.506-.462.848s.132.5.539.936l.242.253a.348.348,0,0,1,.077.209l-.011.022v.033l-.165.8-.011.011a.69.69,0,0,0-.022.176.9.9,0,0,0,.605.837l.793.253a.3.3,0,0,1,.187.2l.253.771c.121.363,1.123.561,1.431.5.154-.033.385-.088.44-.088.165,0,.319.154.506.341A2.38,2.38,0,0,0-.673-12.623Zm-.892-2.62A2.631,2.631,0,0,1-4.2-17.874a2.645,2.645,0,0,1,2.631-2.631,2.631,2.631,0,0,1,2.631,2.631A2.631,2.631,0,0,1-1.564-15.243Zm0-.572A2.049,2.049,0,0,0,.494-17.874a2.063,2.063,0,0,0-2.059-2.059,2.063,2.063,0,0,0-2.059,2.059A2.063,2.063,0,0,0-1.564-15.816Z" transform="translate(10.497 26.847)" fill="#f7f7f7" stroke="#34aecb" stroke-width="1"/>
        </g>
        <rect id="Background-12" data-name="Background" width="131" height="26" rx="2" transform="translate(0.141 127.493)" fill="#fff"/>
        <text id="Mockit" transform="translate(26.141 143.493)" fill="#8e8e8e" font-size="7" font-family="SFProText-Regular, SF Pro Text"><tspan x="0" y="0">Mockit</tspan></text>
        <g id="Background-13" data-name="Background" transform="translate(4.141 131.493)" fill="#fff" stroke="#e3e3e3" stroke-width="1">
          <rect width="18" height="19" rx="2" stroke="none"/>
          <rect x="0.5" y="0.5" width="17" height="18" rx="1.5" fill="none"/>
        </g>
        <g id="Plugin_Icon-6" data-name="Plugin Icon" transform="translate(4.635 132.553)">
          <text id="M" transform="translate(8.506 11.94)" fill="#6264d2" font-size="10" font-family="GillSans-Bold, Gill Sans" font-weight="700"><tspan x="-4.79" y="0">M</tspan></text>
        </g>
        <rect id="Background-14" data-name="Background" width="131" height="27" rx="2" transform="translate(0.141 215.493)" fill="#fff"/>
        <text id="Plugin_Name" data-name="Plugin Name" transform="translate(26.141 231.493)" fill="#8e8e8e" font-size="7" font-family="SFProText-Regular, SF Pro Text"><tspan x="0" y="0">Plugin Name</tspan></text>
        <g id="Dropdown_-_Chevron-2" data-name="Dropdown - Chevron" transform="translate(117.141 224.493)" clip-path="url(#clip-path-2)">
          <rect id="Rectangle_147391-2" data-name="Rectangle 147391" width="11" height="11" transform="translate(0 0)" fill="#fff" opacity="0"/>
          <path id="Dropdown-2" data-name="Dropdown" d="M0,3.093,3.093,0,6.186,3.093" transform="translate(6.96 2.32) rotate(90)" fill="none" stroke="#666" stroke-linecap="round" stroke-linejoin="round" stroke-miterlimit="10" stroke-width="1"/>
        </g>
        <rect id="Rectangle_147833" data-name="Rectangle 147833" width="10" height="11" transform="translate(117.141 7.493)" fill="#fff" opacity="0"/>
        <g id="Dropdown_-_Chevron-3" data-name="Dropdown - Chevron" transform="translate(127.141 7.493) rotate(90)" clip-path="url(#clip-path-4)">
          <rect id="Rectangle_147391-3" data-name="Rectangle 147391" width="14" height="14" fill="#fff" opacity="0"/>
          <path id="Dropdown-3" data-name="Dropdown" d="M0,4,4,0,8,4" transform="translate(9 3) rotate(90)" fill="none" stroke="#666" stroke-linecap="round" stroke-linejoin="round" stroke-miterlimit="10" stroke-width="1"/>
        </g>
        <rect id="hover" width="131" height="18" rx="2" transform="translate(0.141 47.493)" fill="rgba(45,45,45,0.04)"/>
        <text id="Plugins_menu_item_1" data-name="Plugins menu item 1" transform="translate(4.141 40.493)" fill="#8e8e8e" font-size="7" font-family="SFProText-Regular, SF Pro Text"><tspan x="0" y="0">Plugins menu item 1</tspan></text>
        <text id="Plugins_menu_item_2" data-name="Plugins menu item 2" transform="translate(4.141 58.493)" fill="#8e8e8e" font-size="7" font-family="SFProText-Regular, SF Pro Text"><tspan x="0" y="0">Plugins menu item 2</tspan></text>
        <text id="_O" data-name="⌥⌘O" transform="translate(125.141 58.493)" fill="#8e8e8e" font-size="7" font-family="SFProText-Regular, SF Pro Text"><tspan x="-18.385" y="0">⌥⌘O</tspan></text>
        <line id="Line_6239" data-name="Line 6239" x2="123.727" transform="translate(3.446 26.298)" fill="none" stroke="#e4e4e4" stroke-width="1"/>
        <g id="cursor" transform="translate(86.961 56.07)" clip-path="url(#clip-path-5)">
          <g id="Group_68652" data-name="Group 68652" transform="translate(-0.773 -0.773)" clip-path="url(#clip-path-6)">
            <path id="Path_61119" data-name="Path 61119" d="M-4-2.164H10.6V-22H-4Z" transform="translate(0.907 18.907)"/>
          </g>
        </g>
        <g id="Group_68654" data-name="Group 68654" transform="translate(3.708 219.685)">
          <g id="Plugin_logo_example" data-name="Plugin logo example" transform="translate(0.433 -0.192)" fill="#fff" stroke="#dae2f4" stroke-width="1">
            <rect width="18" height="19" rx="2" stroke="none"/>
            <rect x="0.5" y="0.5" width="17" height="18" rx="1.5" fill="none"/>
          </g>
          <path id="Path_61122" data-name="Path 61122" d="M4.767,0C7.4,0,9.534,4.178,9.534,9.332S0,14.486,0,9.332,2.134,0,4.767,0Z" transform="translate(4.371 3.11)" fill="#dae2f4"/>
          <g id="Mask_Group_10" data-name="Mask Group 10" transform="translate(4.371 3.11)" clip-path="url(#clip-path-7)">
            <g id="Group_68653" data-name="Group 68653" transform="translate(-0.18 2.442)">
              <path id="Path_61123" data-name="Path 61123" d="M-.053,1.179,2.984-.513,5.107,1.179,7.036-.513,9.66,1.179" transform="translate(0.053 3.434)" fill="none" stroke="#fff" stroke-linecap="round" stroke-linejoin="round" stroke-width="0.4"/>
              <path id="Path_61124" data-name="Path 61124" d="M-.053.858,2.483-.513,4.257.858,5.868-.513,8.06.858" transform="translate(0.978 0.513)" fill="none" stroke="#496ec2" stroke-linecap="round" stroke-linejoin="round" stroke-width="0.4"/>
              <path id="Path_61125" data-name="Path 61125" d="M-.053,1.179,2.984-.513,5.107,1.179,7.036-.513,9.66,1.179" transform="translate(0.053 6.533)" fill="none" stroke="#496ec2" stroke-linecap="round" stroke-linejoin="round" stroke-width="0.4"/>
            </g>
          </g>
        </g>
      </g>
    </g>
  </g>
</svg>
